<svg xmlns="http://www.w3.org/2000/svg" viewBox="0 0 128 128" fill="none">
  <defs>
    <linearGradient id="g128" x1="0" y1="0" x2="1" y2="1">
      <stop stop-color="#a855f7" offset="0%"/>
      <stop stop-color="#ec4899" offset="100%"/>
    </linearGradient>
  </defs>
  <rect width="128" height="128" rx="24" fill="#0b0b12"/>
  <rect x="12" y="12" width="104" height="104" rx="20" fill="url(#g128)" opacity="0.15"/>
  <path d="M36 92V36h19.2c7.5 0 12.7 2 16.4 5.6 3.7 3.5 5.7 8.5 5.7 14.4 0 6-2 11-5.8 14.6-3.7 3.6-9 5.5-16 5.5H48V92H36Zm12-25.4h6.8c2.8 0 5-.8 6.5-2.3 1.5-1.5 2.3-3.6 2.3-6.2 0-2.5-.8-4.5-2.3-5.9-1.5-1.4-3.7-2.1-6.5-2.1H48v16.5Zm35.6-30.6L104 92H90.4l-2.8-8.8H71.6L68.8 92H58.4l15.8-56h9.4Zm-4 15.2-4.8 15.3H92l-4.4-15.3Z" fill="#f8fafc"/>
</svg>










