<svg xmlns="http://www.w3.org/2000/svg" viewBox="0 0 32 32" fill="none">
  <defs>
    <linearGradient id="g32" x1="0" y1="0" x2="1" y2="1">
      <stop stop-color="#a855f7" offset="0%"/>
      <stop stop-color="#ec4899" offset="100%"/>
    </linearGradient>
  </defs>
  <rect width="32" height="32" rx="7" fill="#0b0b12"/>
  <rect x="3" y="3" width="26" height="26" rx="6" fill="url(#g32)" opacity="0.18"/>
  <path d="M9 23V9h4.8c2 0 3.4.5 4.4 1.5 1 .9 1.5 2.3 1.5 3.9 0 1.7-.5 3-1.6 4a5.4 5.4 0 0 1-3.9 1.3h-1.4V23H9Zm3-6.9h2.4c1.6 0 2.5-.9 2.5-2.4 0-1.4-.9-2.2-2.4-2.2H12V16Zm9-7.1L24 23h-3.4l-.8-2.6h-4.8L14.2 23h-3L16.8 9h4.2Zm-1.7 4.3-1.4 4.5h2.8l-1.4-4.5Z" fill="#f8fafc"/>
</svg>










