<svg xmlns="http://www.w3.org/2000/svg" width="1200" height="630" viewBox="0 0 1200 630" fill="none">
  <defs>
    <linearGradient id="bg2" x1="0" y1="0" x2="1" y2="1">
      <stop stop-color="#0b0b12" offset="0%"/>
      <stop stop-color="#101223" offset="100%"/>
    </linearGradient>
    <linearGradient id="stroke" x1="0" y1="0" x2="1" y2="1">
      <stop stop-color="#a855f7" offset="0%"/>
      <stop stop-color="#ec4899" offset="50%"/>
      <stop stop-color="#22d3ee" offset="100%"/>
    </linearGradient>
  </defs>
  <rect width="1200" height="630" rx="32" fill="url(#bg2)"/>
  <circle cx="260" cy="180" r="200" fill="#a855f7" opacity="0.16"/>
  <circle cx="950" cy="150" r="190" fill="#22d3ee" opacity="0.12"/>
  <rect x="120" y="150" width="480" height="330" rx="28" fill="#0f1324" stroke="url(#stroke)" stroke-width="2" opacity="0.85"/>
  <rect x="660" y="190" width="360" height="250" rx="24" fill="#0e1220" stroke="url(#stroke)" stroke-width="2" opacity="0.9"/>
  <text x="170" y="220" fill="#f8fafc" font-family="Space Grotesk, Inter, sans-serif" font-size="46" font-weight="700">
    AniVault • Auto-track your anime
  </text>
  <text x="170" y="265" fill="#cbd5e1" font-family="Inter, sans-serif" font-size="20">
    Desktop + Chrome extension • AniList sync • Discord Presence
  </text>
  <rect x="170" y="290" width="220" height="12" rx="6" fill="#1f2937"/>
  <rect x="170" y="310" width="180" height="12" rx="6" fill="#1f2937"/>
  <rect x="170" y="330" width="240" height="12" rx="6" fill="#1f2937"/>
  <rect x="720" y="230" width="260" height="140" rx="18" fill="#0b1220" stroke="#1f2937"/>
  <text x="740" y="270" fill="#e2e8f0" font-family="Inter, sans-serif" font-size="18" font-weight="600">
    Desktop dashboard (placeholder)
  </text>
  <text x="740" y="296" fill="#cbd5e1" font-family="Inter, sans-serif" font-size="14">
    Replace with real screenshot before launch.
  </text>
  <rect x="740" y="318" width="210" height="12" rx="6" fill="url(#stroke)" opacity="0.7"/>
  <rect x="740" y="338" width="150" height="12" rx="6" fill="#1f2937"/>
  <text x="190" y="430" fill="#94a3b8" font-family="Inter, sans-serif" font-size="14">
    Placeholder banner • swap with live UI captures
  </text>
</svg>













