<svg xmlns="http://www.w3.org/2000/svg" width="1600" height="900" viewBox="0 0 1600 900" fill="none">
  <defs>
    <linearGradient id="bg" x1="0" y1="0" x2="1" y2="1">
      <stop stop-color="#0b0b12" offset="0%"/>
      <stop stop-color="#0f1020" offset="100%"/>
    </linearGradient>
    <linearGradient id="glow" x1="0" y1="0" x2="1" y2="1">
      <stop stop-color="#a855f7" offset="0%"/>
      <stop stop-color="#ec4899" offset="50%"/>
      <stop stop-color="#22d3ee" offset="100%"/>
    </linearGradient>
  </defs>
  <rect width="1600" height="900" fill="url(#bg)"/>
  <circle cx="400" cy="220" r="260" fill="#a855f7" opacity="0.18"/>
  <circle cx="1300" cy="180" r="240" fill="#22d3ee" opacity="0.16"/>
  <circle cx="1100" cy="640" r="260" fill="#ec4899" opacity="0.12"/>
  <rect x="180" y="200" width="580" height="420" rx="32" fill="#0f1324" stroke="url(#glow)" stroke-width="2" opacity="0.85"/>
  <rect x="860" y="240" width="420" height="320" rx="28" fill="#0e1220" stroke="url(#glow)" stroke-width="2" opacity="0.9"/>
  <text x="220" y="280" fill="#f8fafc" font-family="Space Grotesk, Inter, sans-serif" font-size="56" font-weight="700">
    AniVault • Auto-tracking
  </text>
  <text x="220" y="340" fill="#cbd5e1" font-family="Inter, sans-serif" font-size="24">
    Desktop + Chrome extension • AniList sync • Discord Presence
  </text>
  <text x="220" y="400" fill="#94a3b8" font-family="Inter, sans-serif" font-size="18">
    Placeholder hero artwork — replace with real screenshots before launch.
  </text>
  <rect x="220" y="430" width="280" height="20" rx="10" fill="url(#glow)" opacity="0.6"/>
  <rect x="220" y="470" width="220" height="12" rx="6" fill="#1f2937"/>
  <rect x="220" y="490" width="260" height="12" rx="6" fill="#1f2937"/>
  <rect x="220" y="510" width="200" height="12" rx="6" fill="#1f2937"/>
  <rect x="920" y="280" width="300" height="180" rx="20" fill="#111827" stroke="#1f2937"/>
  <text x="940" y="330" fill="#e2e8f0" font-family="Inter, sans-serif" font-size="22" font-weight="600">
    Desktop Dashboard
  </text>
  <rect x="940" y="350" width="140" height="14" rx="7" fill="#1f2937"/>
  <rect x="940" y="372" width="180" height="14" rx="7" fill="#1f2937"/>
  <rect x="940" y="420" width="260" height="110" rx="18" fill="#0b1220" stroke="#1f2937"/>
  <text x="960" y="460" fill="#e2e8f0" font-family="Inter, sans-serif" font-size="18" font-weight="600">
    Auto Organizer
  </text>
  <text x="960" y="486" fill="#cbd5e1" font-family="Inter, sans-serif" font-size="14">
    One-click cleanup for messy filenames.
  </text>
  <rect x="960" y="506" width="180" height="10" rx="5" fill="url(#glow)" opacity="0.7"/>
  <rect x="960" y="524" width="120" height="10" rx="5" fill="#1f2937"/>
  <text x="260" y="640" fill="#94a3b8" font-family="Inter, sans-serif" font-size="14">
    Generated placeholder graphic • swap with live UI captures
  </text>
</svg>













