<svg xmlns="http://www.w3.org/2000/svg" width="1400" height="900" viewBox="0 0 1400 900" fill="none">
  <rect width="1400" height="900" rx="32" fill="#0b0f1c"/>
  <rect x="60" y="80" width="1280" height="740" rx="28" fill="#0e1426" stroke="#1f2937" stroke-width="2"/>
  <rect x="120" y="160" width="580" height="520" rx="20" fill="#111827" stroke="#1f2937"/>
  <rect x="760" y="160" width="520" height="520" rx="20" fill="#0f162c" stroke="#1f2937"/>
  <rect x="760" y="160" width="520" height="80" rx="20" fill="#111827" stroke="#1f2937"/>
  <rect x="790" y="190" width="180" height="18" rx="9" fill="#1f2937"/>
  <rect x="790" y="218" width="140" height="14" rx="7" fill="#1f2937"/>
  <rect x="140" y="190" width="260" height="18" rx="9" fill="#1f2937"/>
  <rect x="140" y="220" width="200" height="14" rx="7" fill="#1f2937"/>
  <rect x="140" y="260" width="520" height="360" rx="18" fill="#0b1220" stroke="#1f2937"/>
  <rect x="790" y="270" width="420" height="140" rx="16" fill="#0b1220" stroke="#1f2937"/>
  <rect x="790" y="430" width="420" height="220" rx="16" fill="#0b1220" stroke="#1f2937"/>
  <rect x="220" y="660" width="400" height="24" rx="12" fill="url(#g)"/>
  <text x="140" y="660" fill="#cbd5e1" font-family="Inter, sans-serif" font-size="18">
    Placeholder desktop UI — replace with real screenshot
  </text>
  <defs>
    <linearGradient id="g" x1="0" y1="0" x2="1" y2="0">
      <stop stop-color="#a855f7" offset="0%"/>
      <stop stop-color="#ec4899" offset="50%"/>
      <stop stop-color="#22d3ee" offset="100%"/>
    </linearGradient>
  </defs>
</svg>










