<svg xmlns="http://www.w3.org/2000/svg" width="1400" height="900" viewBox="0 0 1400 900" fill="none">
  <rect width="1400" height="900" rx="32" fill="#0c101d"/>
  <rect x="80" y="120" width="1240" height="660" rx="22" fill="#0f1628" stroke="#1f2937" stroke-width="2"/>
  <rect x="140" y="180" width="1120" height="80" rx="18" fill="#111827" stroke="#1f2937"/>
  <rect x="170" y="210" width="260" height="16" rx="8" fill="#1f2937"/>
  <rect x="170" y="236" width="180" height="12" rx="6" fill="#1f2937"/>
  <rect x="140" y="280" width="1120" height="360" rx="18" fill="#0b1220" stroke="#1f2937"/>
  <rect x="200" y="320" width="480" height="60" rx="12" fill="#111827" stroke="#1f2937"/>
  <rect x="720" y="320" width="420" height="60" rx="12" fill="#111827" stroke="#1f2937"/>
  <rect x="200" y="400" width="940" height="40" rx="10" fill="#111827" stroke="#1f2937"/>
  <rect x="200" y="460" width="760" height="140" rx="14" fill="#0d1526" stroke="#1f2937"/>
  <rect x="980" y="460" width="200" height="140" rx="14" fill="#0d1526" stroke="#1f2937"/>
  <rect x="520" y="720" width="360" height="24" rx="12" fill="url(#g)" />
  <text x="170" y="720" fill="#cbd5e1" font-family="Inter, sans-serif" font-size="18">
    Placeholder extension UI — replace with real capture
  </text>
  <defs>
    <linearGradient id="g" x1="0" y1="0" x2="1" y2="0">
      <stop stop-color="#a855f7" offset="0%"/>
      <stop stop-color="#ec4899" offset="50%"/>
      <stop stop-color="#22d3ee" offset="100%"/>
    </linearGradient>
  </defs>
</svg>













