<svg xmlns="http://www.w3.org/2000/svg" width="1200" height="630" viewBox="0 0 1200 630" fill="none">
  <defs>
    <linearGradient id="bg3" x1="0" y1="0" x2="1" y2="1">
      <stop stop-color="#0b0b12" offset="0%"/>
      <stop stop-color="#0e1120" offset="100%"/>
    </linearGradient>
    <linearGradient id="line" x1="0" y1="0" x2="1" y2="0">
      <stop stop-color="#a855f7" offset="0%"/>
      <stop stop-color="#ec4899" offset="50%"/>
      <stop stop-color="#22d3ee" offset="100%"/>
    </linearGradient>
  </defs>
  <rect width="1200" height="630" rx="32" fill="url(#bg3)"/>
  <circle cx="260" cy="200" r="220" fill="#a855f7" opacity="0.14"/>
  <circle cx="980" cy="180" r="200" fill="#22d3ee" opacity="0.12"/>
  <rect x="150" y="170" width="480" height="300" rx="24" fill="#0f1527" stroke="url(#line)" stroke-width="2" opacity="0.9"/>
  <rect x="690" y="200" width="360" height="240" rx="22" fill="#0f1424" stroke="url(#line)" stroke-width="2" opacity="0.9"/>
  <text x="190" y="240" fill="#f8fafc" font-family="Space Grotesk, Inter, sans-serif" font-size="48" font-weight="700">
    AniVault — Automatic Anime Tracker
  </text>
  <text x="190" y="285" fill="#cbd5e1" font-family="Inter, sans-serif" font-size="20">
    Desktop app + Chrome extension • AniList sync • Discord Presence
  </text>
  <rect x="190" y="310" width="260" height="12" rx="6" fill="#1f2937"/>
  <rect x="190" y="332" width="220" height="12" rx="6" fill="#1f2937"/>
  <rect x="190" y="354" width="260" height="12" rx="6" fill="#1f2937"/>
  <rect x="720" y="240" width="300" height="140" rx="18" fill="#0b1220" stroke="#1f2937"/>
  <text x="740" y="280" fill="#e2e8f0" font-family="Inter, sans-serif" font-size="18" font-weight="600">
    Auto-tracking preview (placeholder)
  </text>
  <rect x="740" y="300" width="240" height="12" rx="6" fill="url(#line)" opacity="0.7"/>
  <rect x="740" y="322" width="180" height="12" rx="6" fill="#1f2937"/>
  <text x="190" y="430" fill="#94a3b8" font-family="Inter, sans-serif" font-size="16">
    Replace this OG image with production captures before final launch.
  </text>
</svg>













